<svg width="33" height="34" viewBox="0 0 33 34" fill="none" xmlns="http://www.w3.org/2000/svg">
<path d="M5.15865 22.6925L3.5539 13.1197C3.31126 11.6724 3.18995 10.9487 3.57843 10.4743C3.96693 10 4.68094 10 6.10898 10H25.8807C27.3087 10 28.0227 10 28.4112 10.4743C28.7996 10.9487 28.6783 11.6724 28.4357 13.1197L26.8309 22.6925C26.2991 25.8655 26.0331 27.4519 24.9472 28.3927C23.8615 29.3333 22.2961 29.3333 19.1657 29.3333H12.8239C9.69341 29.3333 8.12816 29.3333 7.04232 28.3927C5.95648 27.4519 5.69054 25.8655 5.15865 22.6925Z" stroke="#323232" stroke-width="3"/>
<path d="M23.3385 9.99935C23.3385 5.94926 20.0553 2.66602 16.0052 2.66602C11.9551 2.66602 8.67188 5.94926 8.67188 9.99935" stroke="#323232" stroke-width="3"/>
<rect x="17" y="18" width="16" height="16" rx="8" fill="#323232"/>
<path d="M24.205 28.8152C24.1975 28.8301 24.1975 28.845 24.205 28.86C24.2125 28.8674 24.2237 28.8712 24.2386 28.8712H27.6098C27.6845 28.8712 27.7218 28.9085 27.7218 28.9832V29.6888C27.7218 29.7634 27.6845 29.8008 27.6098 29.8008H22.917C22.8423 29.8008 22.805 29.7634 22.805 29.6888V29.0056C22.805 28.9533 22.8237 28.9085 22.861 28.8712C23.1149 28.58 23.6973 27.8968 24.6082 26.8216L25.381 25.892C26.0754 25.0632 26.4226 24.421 26.4226 23.9656C26.4226 23.6146 26.3031 23.3346 26.0642 23.1256C25.8327 22.909 25.5229 22.8008 25.1346 22.8008C24.7463 22.8008 24.4365 22.909 24.205 23.1256C23.9735 23.3421 23.8615 23.6258 23.869 23.9768V24.3128C23.869 24.3874 23.8317 24.4248 23.757 24.4248H22.8946C22.8199 24.4248 22.7826 24.3874 22.7826 24.3128V23.8312C22.7975 23.4429 22.9058 23.0994 23.1074 22.8008C23.3165 22.5021 23.5965 22.2744 23.9474 22.1176C24.2983 21.9533 24.6941 21.8712 25.1346 21.8712C25.6125 21.8712 26.0306 21.9608 26.389 22.14C26.7474 22.3192 27.0237 22.5656 27.2178 22.8792C27.4119 23.1928 27.509 23.5474 27.509 23.9432C27.509 24.5629 27.173 25.2946 26.501 26.1384C26.2023 26.5192 25.8477 26.9485 25.437 27.4264C25.0263 27.8968 24.6157 28.3597 24.205 28.8152Z" fill="white"/>
</svg>
